  
<svg xmlns="http://www.w3.org/2000/svg" width="39" height="57" viewBox="0 0 39 57">
  <g fill="none" fill-rule="evenodd">
    <rect width="39" height="57" fill="#333333"/>
    <path fill="#FFCC00" d="M16.96 35.1L3.5 35.1 3.5 15.12C5.86 21.02 10.56 28.18 16.96 35.1zM35.1 3.5L35.1 19.42C35.08 19.4 35.06 19.38 35.04 19.36 27.78 11.7 20.04 6.06 13.84 3.5L35.1 3.5z"/>
    <path fill="#FFCC00" d="M35.1,20.78 L35.1,23.58 C34.38,22.74 33.64,21.92 32.84,21.1 C24.12,12.06 14.12,7.6 10.5,11.1 C6.86,14.6 10.98,24.76 19.7,33.78 C20.14,34.22 20.58,34.66 21.02,35.1 L18.36,35.1 C7.98,24.64 3.06,12.7 7.36,8.42 C9.93429241,5.85768105 15.239661,6.62856528 21.3106479,9.90441392 C25.3804063,12.1004181 29.7942221,15.4221159 33.96,19.62 C34.36,20 34.74,20.38 35.1,20.78 Z"/>
    <path fill="#FFCC00" d="M35.1,24.98 L35.1,35.1 L30.52,35.1 L26.32,21.74 L22.7,35.1 L22.26,35.1 C21.6,34.5 20.94,33.86 20.3,33.2 C13.2,25.84 10.12,17.32 13.42,14.14 C16.72,10.96 25.14,14.34 32.24,21.68 C33.28,22.76 34.24,23.86 35.1,24.98 Z"/>
    <path fill="#FFFFFF" d="M3.9,39 L6.54,39 L6.54,53 L3.9,53 L3.9,39 Z M9.84,39 L16.08,39 C17.24,39 18.24,39.18 19.08,39.54 C19.92,39.9 20.62,40.4 21.14,41.04 C21.66,41.68 22.08,42.42 22.34,43.26 C22.6,44.1 22.74,45.02 22.74,45.98 C22.74,46.94 22.6,47.86 22.34,48.7 C22.08,49.54 21.68,50.3 21.14,50.92 C20.6,51.56 19.92,52.06 19.08,52.42 C18.24,52.78 17.24,52.96 16.08,52.96 L9.84,52.96 L9.84,39 Z M12.48,51 L15.08,51 C16.1,51 16.94,50.88 17.6,50.62 C18.26,50.36 18.76,50.02 19.14,49.56 C19.52,49.1 19.76,48.58 19.9,47.98 C20.04,47.38 20.1,46.72 20.1,46 C20.1,45.28 20.04,44.64 19.9,44.02 C19.76,43.4 19.52,42.88 19.14,42.44 C18.76,42 18.26,41.64 17.6,41.38 C16.94,41.12 16.1,41 15.08,41 L12.48,41 L12.48,51 L12.48,51 Z M23.32,39 L35.5,39 L35.5,41.12 L30.72,41.12 L30.72,53 L28.08,53 L28.08,41.12 L23.32,41.12 L23.32,39 L23.32,39 Z"/>
  </g>
</svg>